<?xml version="1.0" encoding="utf-8"?>
<!-- Generator: Adobe Illustrator 21.0.0, SVG Export Plug-In . SVG Version: 6.00 Build 0)  -->
<svg version="1.1" baseProfile="basic" id="Слой_1"
	 xmlns="http://www.w3.org/2000/svg" xmlns:xlink="http://www.w3.org/1999/xlink" x="0px" y="0px" viewBox="0 0 514.6 306"
	 xml:space="preserve">
<rect fill-rule="evenodd" clip-rule="evenodd" fill="#DADADA" width="514.6" height="306"/>
<path fill-rule="evenodd" clip-rule="evenodd" fill="#E62C29" d="M437.8,222.5c3.1,7.1,12,14.5,19.4,16.9
	c10.2,3.3,21.2,2.7,30.1-2.5c7.5-4.4,13.2-10,16.7-19.7c1.8-5.2,2.5-9.9,2.2-15.8c-0.3-5.2-3-10-4.3-14.1l-48.1,26.4
	C448.4,216.7,443.1,219.4,437.8,222.5 M487.4,200.6c0.3-2.7,4.2-3.3,4.7-1.1C492.5,201.3,489.4,202.9,487.4,200.6z M480.6,203.6
	c0.7-2,2.4-2.2,3.6-0.7C483.9,205.5,481.9,205.1,480.6,203.6z M488,207.7c1.4-1.8,2.9-1.8,4.3-0.4c0.1,1.6-0.1,2.6-1.8,2.4
	C489,209.6,488.4,208.9,488,207.7z M480.3,208.3c0.4-0.7,4.2-2.2,3.5,1.7c-0.7,0.3-1.5,0.7-2.4,0.1
	C480.9,209.8,480,208.9,480.3,208.3z M478.1,216.2c-3.1-4.8,3.5-4,2.2-0.5C479.6,216.1,479.2,216.3,478.1,216.2z M462.5,214.1
	c1,2.7-1.2,4.3-2.5,2.8C458.8,215.6,460.7,214,462.5,214.1z M488.8,218.3c-0.9,0.7-2.1,0.2-2.7-0.4c-2.7-2.6-0.1-3.5,2.6-2.6
	C489.1,216.3,489.9,217.4,488.8,218.3z M452.2,220.7c-3.5-1.5-1.4-4.6,2.1-3.6C454.8,219.1,453.7,220.1,452.2,220.7z M467.8,216.3
	c1.1,2.3,0.1,4.9-1.9,3.4C464.6,218.8,465.4,216.3,467.8,216.3z M471.9,220.1c-1.8-1.1-1.8-2.4-0.4-3.8
	C473.4,216.7,474.7,219.2,471.9,220.1z M455.8,224.9c-0.7-3.3,2.5-4.3,3.2-3.3C460.5,223.6,458.7,226,455.8,224.9z M478.9,221.7
	c2.7,0,4,2.2,1.9,4C478.4,225.7,477.6,223.7,478.9,221.7z M462.5,228.1c-0.4-0.7-1.1-1.5-0.5-2.8c0.3-0.5,1.4-1.8,2.3-1.5
	C465.4,224.1,466.9,228.4,462.5,228.1z M470.2,227.9c-0.4-1.8,0-2.8,1.3-3.7C475.2,225.2,473.5,230.7,470.2,227.9z"/>
<path fill-rule="evenodd" clip-rule="evenodd" fill="#3FAB33" d="M501.9,187.3c1.3,4.2,4,8.9,4.3,14.1c0.3,5.9-0.3,10.6-2.2,15.8
	c-3.5,9.7-9.1,15.2-16.7,19.7c-8.9,5.2-19.9,5.8-30.1,2.5c-7.4-2.4-16.3-9.8-19.4-16.9c-1.3,0.6-2.2,1.2-3.4,1.9
	c0.5,1.9,4.6,7,6.2,8.6c2.5,2.5,5.7,4.6,8.5,6.7c1.7,1.3,8.3,3.8,10.5,4.4c9.4,2.4,21.1,1.2,29.5-3.9c3.9-2.3,6.8-4.4,9.7-7.7
	c6.4-7.4,9-12,10.7-22.2c0.3-1.6,0.6-2.5,0.4-4.3c-0.8-9.5-0.4-11.8-4.8-20.1C504,186.1,502.9,186.7,501.9,187.3"/>
<path fill-rule="evenodd" clip-rule="evenodd" fill="#2F2483" d="M487.4,200.6c2,2.3,5,0.6,4.7-1.1
	C491.6,197.4,487.7,197.9,487.4,200.6"/>
<path fill-rule="evenodd" clip-rule="evenodd" fill="#2F2483" d="M462.5,228.1c4.3,0.3,2.9-4,1.8-4.3c-0.9-0.3-2.1,1-2.3,1.5
	C461.4,226.6,462.1,227.4,462.5,228.1"/>
<path fill-rule="evenodd" clip-rule="evenodd" fill="#2F2483" d="M470.2,227.9c3.3,2.8,5.1-2.7,1.3-3.7
	C470.2,225.1,469.8,226.2,470.2,227.9"/>
<path fill-rule="evenodd" clip-rule="evenodd" fill="#2F2483" d="M488.7,215.3c-2.7-0.8-5.3,0.1-2.6,2.6c0.6,0.6,1.8,1.1,2.7,0.4
	C489.9,217.4,489.1,216.3,488.7,215.3"/>
<path fill-rule="evenodd" clip-rule="evenodd" fill="#2F2483" d="M455.8,224.9c2.9,1.1,4.7-1.3,3.2-3.3
	C458.3,220.6,455.1,221.6,455.8,224.9"/>
<path fill-rule="evenodd" clip-rule="evenodd" fill="#2F2483" d="M452.2,220.7c1.5-0.6,2.6-1.6,2.1-3.6
	C450.8,216.1,448.8,219.1,452.2,220.7"/>
<path fill-rule="evenodd" clip-rule="evenodd" fill="#2F2483" d="M488,207.7c0.5,1.3,1,1.9,2.5,2.1c1.7,0.2,1.9-0.9,1.8-2.4
	C490.8,205.9,489.3,205.8,488,207.7"/>
<path fill-rule="evenodd" clip-rule="evenodd" fill="#2F2483" d="M478.9,221.7c-1.3,2-0.5,4,1.9,4
	C482.9,223.9,481.6,221.7,478.9,221.7"/>
<path fill-rule="evenodd" clip-rule="evenodd" fill="#2F2483" d="M467.8,216.3c-2.3,0-3.2,2.5-1.9,3.4
	C467.9,221.2,468.8,218.5,467.8,216.3"/>
<path fill-rule="evenodd" clip-rule="evenodd" fill="#2F2483" d="M483.8,210c0.7-3.9-3.1-2.5-3.5-1.7c-0.3,0.7,0.7,1.6,1,1.8
	C482.3,210.7,483,210.3,483.8,210"/>
<path fill-rule="evenodd" clip-rule="evenodd" fill="#2F2483" d="M478.1,216.2c1.1,0,1.5-0.1,2.2-0.5
	C481.6,212.3,475,211.4,478.1,216.2"/>
<path fill-rule="evenodd" clip-rule="evenodd" fill="#2F2483" d="M471.9,220.1c2.8-0.9,1.5-3.4-0.4-3.8
	C470,217.7,470.1,219,471.9,220.1"/>
<path fill-rule="evenodd" clip-rule="evenodd" fill="#2F2483" d="M462.5,214.1c-1.9-0.1-3.7,1.5-2.5,2.8
	C461.3,218.4,463.5,216.8,462.5,214.1"/>
<path fill-rule="evenodd" clip-rule="evenodd" fill="#2F2483" d="M480.6,203.6c1.3,1.5,3.3,1.9,3.6-0.7
	C483,201.4,481.3,201.6,480.6,203.6"/>
<rect x="96.7" y="53.1" transform="matrix(0.2387 -0.9711 0.9711 0.2387 5.8613 163.9278)" fill-rule="evenodd" clip-rule="evenodd" fill="#AFCA04" width="21.5" height="50.2"/>
<rect x="88.6" y="76.4" transform="matrix(0.2387 -0.9711 0.9711 0.2387 -21.0842 176.087)" fill-rule="evenodd" clip-rule="evenodd" fill="#B30172" width="26.4" height="50.2"/>
<rect x="106.6" y="48.1" transform="matrix(0.2387 -0.9711 0.9711 0.2387 33.3716 158.7041)" fill-rule="evenodd" clip-rule="evenodd" fill="#E3000F" width="22.6" height="19.9"/>
<rect x="126.4" y="63.7" transform="matrix(0.2387 -0.9711 0.9711 0.2387 32.8625 178.9915)" fill-rule="evenodd" clip-rule="evenodd" fill="#009634" width="8.3" height="9.8"/>
<path fill-rule="evenodd" clip-rule="evenodd" fill="#009EE3" d="M94.2,70.3c2.4,0.6,3.9,3.1,3.3,5.5c-0.6,2.4-3.1,3.9-5.5,3.3
	c-2.4-0.6-3.9-3.1-3.3-5.5C89.2,71.1,91.7,69.7,94.2,70.3"/>
<path fill-rule="evenodd" clip-rule="evenodd" fill="#009EE3" d="M108.6,73.8c2.4,0.6,3.9,3.1,3.3,5.5c-0.6,2.4-3.1,3.9-5.5,3.3
	c-2.4-0.6-3.9-3.1-3.3-5.5C103.6,74.7,106.1,73.2,108.6,73.8"/>
<path fill-rule="evenodd" clip-rule="evenodd" fill="#009EE3" d="M123,77.3c2.4,0.6,3.9,3.1,3.3,5.5c-0.6,2.4-3.1,3.9-5.5,3.3
	c-2.4-0.6-3.9-3.1-3.3-5.5C118.1,78.2,120.5,76.7,123,77.3"/>
<path fill-rule="evenodd" clip-rule="evenodd" fill="#2F2483" d="M111.9,117.5c-1.9,6.9-9,11.1-16,9.4c-7-1.7-11.4-8.7-9.8-15.8
	l6,1.5c-0.7,3.7,1.6,7.4,5.3,8.3c3.7,0.9,7.5-1.3,8.5-4.9L111.9,117.5z"/>
<path fill-rule="evenodd" clip-rule="evenodd" fill="#009EE3" d="M102.3,101.1c7.1,1.8,11.5,9,9.8,16.1c0,0.1-0.1,0.2-0.1,0.3
	l-6-1.5c0-0.1,0.1-0.2,0.1-0.3c0.9-3.8-1.4-7.7-5.2-8.6c-3.8-0.9-7.7,1.4-8.6,5.2c0,0.1-0.1,0.2-0.1,0.3l-6-1.5
	c0-0.1,0.1-0.2,0.1-0.3C87.9,103.7,95.1,99.3,102.3,101.1"/>
<path fill-rule="evenodd" clip-rule="evenodd" fill="#009EE3" d="M131.6,84.6l-8.8,35.6c20,4.9,40.3-6.8,46.2-26.4L131.6,84.6z"/>
<path fill-rule="evenodd" clip-rule="evenodd" fill="#2F2483" d="M80.7,82.7l-6.3,25.6C60,104.8,50.9,90.6,53.7,76.1L80.7,82.7z"/>
<path fill-rule="evenodd" clip-rule="evenodd" fill="#E3000F" d="M180.9,35.1c-1,5.4-0.2,9.4,1.4,14.2c0.8,2.2,1.4,3.4,2.4,5.5
	c0.2,0.5,0.4,0.8,0.7,1.3c1.2,2.1,4.5,6.9,5.9,8.5c0.3,0.4,0.6,0.7,0.9,1.1c1.4,1.6,3.5,4.1,5,5.6c0.4,0.4,0.7,0.7,1,1
	c0.4,0.4,0.7,0.7,1.1,1.1c0.7,0.7,1.4,1.4,2.2,2.1c2.7,2.5,1.8,2.4,5.3,1c4.3-1.7,6.6-2.7,10.9-4.9c0.9-0.5,1.7-1,2.6-1.4
	c1.6-0.8,4.7-2.9,6.2-4c0.2-0.1,0.4-0.2,0.6-0.4l1.8-1.4c0.4-0.3,0.8-0.6,1.2-1c0.7-0.7,1.5-1.3,2.2-2c3.7-3.7,7.4-8.5,8.4-13.8
	c0.8-4.1,0.7-7.3-1-11.2l-0.6-1.3c-0.4-0.7-1.1-1.7-1.6-2.4c-0.3-0.4-0.6-0.7-1-1.1c-2.4-2.5-5.5-4.2-8.8-4.9l-0.4-0.1
	c-3.4-0.6-7-0.2-10.2,1.4l-1.6,1c-0.3,0.2-0.4,0.3-0.7,0.5c-0.5,0.4-1.7,1.6-1.9,2.1l-0.2,0c0-0.6-0.7-2-1-2.6l-1.5-2.3
	c-2.2-2.6-5.3-4.3-8.7-5l-0.9-0.2c-1.8-0.3-3.6-0.3-5.4,0c-0.6,0.1-1.1,0.2-1.6,0.3c-1.9,0.4-3.3,1.3-4.8,2l-1.8,1.3
	c-0.7,0.6-1.5,1.3-2.1,2.1C182.8,29.7,181.5,32,180.9,35.1"/>
<rect x="188.7" y="115.1" transform="matrix(0.1969 -0.9804 0.9804 0.1969 9.7407 318.2736)" fill-rule="evenodd" clip-rule="evenodd" fill="#E3000F" width="20.9" height="76.1"/>
<rect x="184.6" y="135.7" transform="matrix(0.1969 -0.9804 0.9804 0.1969 -13.6848 330.7188)" fill-rule="evenodd" clip-rule="evenodd" fill="#EF7D00" width="20.9" height="76.1"/>
<path fill-rule="evenodd" clip-rule="evenodd" fill="#4AB1DF" d="M200.7,146.4c4,0.8,6.5,4.5,5.8,8.3c-0.8,3.8-4.6,6.2-8.5,5.4
	c-4-0.8-6.5-4.5-5.8-8.3C192.9,148,196.7,145.6,200.7,146.4 M221.2,150.5c4,0.8,6.5,4.5,5.8,8.3c-0.8,3.8-4.6,6.2-8.5,5.4
	c-4-0.8-6.5-4.5-5.8-8.3C213.5,152.1,217.3,149.7,221.2,150.5z M180.2,142.3c4,0.8,6.5,4.5,5.8,8.3c-0.8,3.8-4.6,6.2-8.5,5.4
	c-4-0.8-6.5-4.5-5.8-8.3C172.4,143.9,176.2,141.5,180.2,142.3z"/>
<path fill-rule="evenodd" clip-rule="evenodd" fill="#009634" d="M177.4,169.5c6.3,1.3,10.5,7.2,9.2,13.2c-1.2,6-7.3,9.9-13.6,8.6
	c-6.3-1.3-10.5-7.2-9.2-13.2C165,172.1,171.1,168.2,177.4,169.5"/>
<path fill-rule="evenodd" clip-rule="evenodd" fill="#2F2483" d="M214.5,176.9c6.3,1.3,10.5,7.2,9.2,13.2c-1.2,6-7.3,9.9-13.6,8.6
	c-6.3-1.3-10.5-7.2-9.2-13.2C202.1,179.5,208.2,175.7,214.5,176.9"/>
<rect x="233.2" y="171.7" transform="matrix(0.1969 -0.9804 0.9804 0.1969 18.0636 376.0322)" fill-rule="evenodd" clip-rule="evenodd" fill="#CB260C" width="10.6" height="10.5"/>
<rect x="301.8" y="151.7" transform="matrix(0.1969 -0.9804 0.9804 0.1969 93.7917 429.3535)" fill-rule="evenodd" clip-rule="evenodd" fill="#E3000F" width="14.4" height="11.4"/>
<rect x="273.7" y="132" transform="matrix(0.1969 -0.9804 0.9804 0.1969 61.4729 415.1794)" fill-rule="evenodd" clip-rule="evenodd" fill="#4AB1DF" width="20.9" height="76.1"/>
<rect x="297.5" y="173.8" transform="matrix(0.1969 -0.9804 0.9804 0.1969 54.9902 459.4997)" fill-rule="evenodd" clip-rule="evenodd" fill="#EF7D00" width="20.9" height="44.9"/>
<rect x="253.9" y="165.4" transform="matrix(0.1969 -0.9804 0.9804 0.1969 28.5491 409.7038)" fill-rule="evenodd" clip-rule="evenodd" fill="#AFCA04" width="20.9" height="44.1"/>
<path fill-rule="evenodd" clip-rule="evenodd" fill="#2F2483" d="M267.9,188c6.3,1.3,10.5,7.2,9.2,13.2c-1.2,6-7.3,9.9-13.6,8.6
	c-6.3-1.3-10.5-7.2-9.2-13.2C255.5,190.6,261.6,186.7,267.9,188"/>
<path fill-rule="evenodd" clip-rule="evenodd" fill="#2F2483" d="M305,195.4c6.3,1.3,10.5,7.2,9.2,13.2c-1.2,6-7.3,9.9-13.6,8.6
	c-6.3-1.3-10.5-7.2-9.2-13.2C292.6,198,298.7,194.1,305,195.4"/>
<path fill-rule="evenodd" clip-rule="evenodd" fill="#2F2483" d="M245,247.5l7.2,1.4c0.8,0.2,1.3,0.9,1.2,1.7l-2.2,11.7
	c-0.2,0.8-0.9,1.3-1.7,1.2l-7.2-1.4c-0.8-0.2-1.3-0.9-1.2-1.7l2.2-11.7C243.4,247.9,244.2,247.3,245,247.5"/>
<path fill-rule="evenodd" clip-rule="evenodd" fill="#7C6EB0" d="M247.6,246.7l2.4,0.5c0.6,0.1,1,0.7,0.9,1.3l-2.9,15
	c-0.1,0.6-0.7,1-1.3,0.9l-2.4-0.5c-0.6-0.1-1-0.7-0.9-1.3l2.9-15C246.5,247,247.1,246.6,247.6,246.7"/>
<path fill-rule="evenodd" clip-rule="evenodd" fill="#B30172" d="M145.5,236.6l19.7,3.7l0,0l0.5,0.1l2-10.4l34.2,6.5l1.2,0.2
	l-2,10.4l41,7.8l1.1-6l-16.2-4.5c-1.3-0.3-2.5-0.4-3.7-0.8c-2.7-1-1.3-3-4.6-6.7c-0.9-1-1-1.2-2.2-1.9c-1-0.6-1.9-0.9-2.9-1.1
	l-4.2-0.8l-45.8-8.7l-13-2.5c-0.9-0.1-1.5,0-1.8,0.2c-1.2,0.8-1.3,4-1.8,6.6C146.5,231.4,146,234,145.5,236.6"/>
<path fill-rule="evenodd" clip-rule="evenodd" fill="#009EE3" d="M145.5,236.6l19.7,3.7l0,0l0.5,0.1l-2,10.4l0,0l0,0.1l35.4,6.7
	l2-10.4l41,7.8l-1,5.4c0,0.2,0,0.5,0,0.7l-16.9-1.8c-1.3-0.2-2.5-0.6-3.8-0.6c-2.9,0-2.3,2.4-6.8,4.5c-1.2,0.6-1.3,0.7-2.7,0.9
	c-1.1,0.2-2.1,0.1-3.1,0l-4.2-0.8l-45.8-8.7l-13-2.5c-0.8-0.3-1.4-0.6-1.6-0.8c-0.8-1.1,0.3-4.1,0.8-6.8
	C144.5,241.8,145,239.2,145.5,236.6"/>
<path fill-rule="evenodd" clip-rule="evenodd" fill="#E3000F" d="M397.4,188.7c7.6,3.1,11.2,11.7,8.2,19.2s-11.7,11.2-19.2,8.2
	c-7.6-3.1-11.2-11.7-8.2-19.2C381.2,189.3,389.9,185.6,397.4,188.7"/>
<path fill-rule="evenodd" clip-rule="evenodd" fill="#4AB1DF" d="M379.6,204.2c7.6,3.1,11.2,11.7,8.2,19.2
	c-3.1,7.6-11.7,11.2-19.2,8.2c-7.6-3.1-11.2-11.7-8.2-19.2C363.4,204.8,372,201.2,379.6,204.2"/>
<path fill-rule="evenodd" clip-rule="evenodd" fill="#B30172" d="M401.5,212.4c7.6,3.1,11.2,11.7,8.2,19.2
	c-3.1,7.6-11.7,11.2-19.2,8.2c-7.6-3.1-11.2-11.7-8.2-19.2C385.3,213,394,209.4,401.5,212.4"/>
<path fill-rule="evenodd" clip-rule="evenodd" fill="#EF7D00" d="M363.3,228.1l-4.2,56.5l35.3-43.8c-1.3-0.1-2.6-0.5-3.9-1
	c-4.3-1.7-7.3-5.3-8.6-9.4c-3.9,2.4-8.8,3-13.4,1.2C366.5,230.8,364.7,229.6,363.3,228.1"/>
<path fill-rule="evenodd" clip-rule="evenodd" fill="#EF7D00" d="M418.5,124.7L418.5,124.7c1-0.6,2.2-0.3,2.9,0.6l4.9,7.6
	c0.6,1,0.3,2.2-0.6,2.9c-1,0.6-2.2,0.3-2.9-0.6l-4.9-7.6C417.3,126.6,417.5,125.3,418.5,124.7 M405,149.4L405,149.4
	c0-1.1,1-2.1,2.1-2l9.1,0.2c1.1,0,2.1,1,2,2.1v0c0,1.1-1,2.1-2.1,2l-9.1-0.2C405.9,151.5,405,150.5,405,149.4z M444.3,163.8
	L444.3,163.8c1-0.6,2.2-0.3,2.9,0.6l4.9,7.6c0.6,1,0.3,2.2-0.6,2.9c-1,0.6-2.2,0.3-2.9-0.6l-4.9-7.6
	C443.1,165.7,443.4,164.4,444.3,163.8z M434.8,119.7L434.8,119.7c1.1,0,2.1,0.9,2.1,2.1v9.1c0,1.1-0.9,2.1-2.1,2.1h0
	c-1.1,0-2.1-0.9-2.1-2.1v-9.1C432.8,120.7,433.7,119.7,434.8,119.7z M435.2,166.6L435.2,166.6c1.1,0,2.1,0.9,2.1,2.1v9.1
	c0,1.1-0.9,2.1-2.1,2.1h0c-1.1,0-2.1-0.9-2.1-2.1v-9.1C433.1,167.5,434.1,166.6,435.2,166.6z M417.8,174.4L417.8,174.4
	c-0.9-0.7-1.2-1.9-0.5-2.9l5.2-7.4c0.7-0.9,1.9-1.2,2.9-0.5h0c0.9,0.7,1.2,1.9,0.5,2.9l-5.2,7.4C420,174.8,418.7,175,417.8,174.4z
	 M444.2,135.7L444.2,135.7c-0.9-0.7-1.2-1.9-0.5-2.9l5.2-7.4c0.7-0.9,1.9-1.2,2.9-0.5h0c0.9,0.7,1.2,1.9,0.5,2.9l-5.2,7.4
	C446.4,136.1,445.1,136.3,444.2,135.7z M408.3,163.4L408.3,163.4c-0.5-1-0.1-2.3,0.9-2.8l8.1-4.1c1-0.5,2.3-0.1,2.8,0.9h0
	c0.5,1,0.1,2.3-0.9,2.8l-8.1,4.1C410,164.8,408.8,164.4,408.3,163.4z M450,142L450,142c-0.5-1-0.1-2.3,0.9-2.8l8.1-4.1
	c1-0.5,2.3-0.1,2.8,0.9v0c0.5,1,0.1,2.3-0.9,2.8l-8.1,4.1C451.7,143.5,450.5,143.1,450,142z M408.2,136.1L408.2,136.1
	c0.5-1,1.8-1.4,2.8-0.9l8.1,4.2c1,0.5,1.4,1.8,0.9,2.8v0c-0.5,1-1.8,1.4-2.8,0.9l-8.1-4.2C408.1,138.4,407.7,137.2,408.2,136.1z
	 M450.1,157.3L450.1,157.3c0.5-1,1.8-1.4,2.8-0.9l8.1,4.2c1,0.5,1.4,1.8,0.9,2.8v0c-0.5,1-1.8,1.4-2.8,0.9l-8-4.2
	C449.9,159.6,449.5,158.3,450.1,157.3z M451.8,149.9L451.8,149.9c0-1.1,1-2.1,2.1-2l9.1,0.2c1.1,0,2.1,1,2,2.1v0c0,1.1-1,2.1-2.1,2
	l-9.1-0.2C452.7,151.9,451.8,151,451.8,149.9z"/>
<path fill-rule="evenodd" clip-rule="evenodd" fill="#E3000F" d="M434.6,136.6c7.4,0,13.4,6,13.4,13.4c0,7.4-6,13.4-13.4,13.4
	c-7.4,0-13.4-6-13.4-13.4C421.1,142.6,427.1,136.6,434.6,136.6"/>
<rect x="264.5" y="75.2" transform="matrix(0.9636 -0.2674 0.2674 0.9636 -11.2067 80.274)" fill-rule="evenodd" clip-rule="evenodd" fill="#009EE3" width="49.4" height="12.2"/>
<rect x="273.3" y="107.8" transform="matrix(0.9636 -0.2674 0.2674 0.9636 -19.6018 83.8286)" fill-rule="evenodd" clip-rule="evenodd" fill="#2F2483" width="49.4" height="12.2"/>
<rect x="270.2" y="91.6" transform="matrix(0.9636 -0.2673 0.2673 0.9636 -17.3214 77.5898)" fill-rule="evenodd" clip-rule="evenodd" fill="#3FAB33" width="12.2" height="21.5"/>
<rect x="305" y="82" transform="matrix(0.9636 -0.2674 0.2674 0.9636 -13.4677 86.559)" fill-rule="evenodd" clip-rule="evenodd" fill="#B30172" width="12.2" height="21.5"/>
<polygon fill-rule="evenodd" clip-rule="evenodd" fill="#EF7D00" points="263.7,82 281.1,52 310.3,69.1 "/>
<rect x="264.7" y="55.3" transform="matrix(0.9636 -0.2674 0.2674 0.9636 -7.6122 74.6632)" fill-rule="evenodd" clip-rule="evenodd" fill="#E3000F" width="11.3" height="19.9"/>
<polygon fill-rule="evenodd" clip-rule="evenodd" fill="#009634" points="275.3,61.9 278.5,73.4 267.6,76.4 267.4,75.7 "/>
<path fill-rule="evenodd" clip-rule="evenodd" fill="#2F2483" d="M39,191.7l18.8-6.2c-0.7-0.8-1.5-1.8-3.1-2.5
	c-1.1-0.5-1.7,0-3.7,1.1c-0.6,0.3-6.8,2.4-7.5,2.5c-2.3,0.3-3.1,0.3-3.6,1.3C39.2,189.4,39.1,190.6,39,191.7 M13.4,200.1l23.6-7.8
	c0-1.3,0.1-4.2,1.3-6.2c1.2-2,5.4-3.3,7.9-4.1c2.5-0.9,6.6-2.3,8.8-1.4c2.2,0.9,4,3.2,4.8,4.2l24.6-8.1c2.5-0.8,5.2,0.5,6.1,3.1
	l10.9,33c0.8,2.5-0.5,5.2-3.1,6.1l-71,23.4c-2.5,0.8-5.2-0.5-6.1-3.1l-10.9-33C9.5,203.7,10.9,200.9,13.4,200.1z"/>
<path fill-rule="evenodd" clip-rule="evenodd" fill="#E62C29" d="M99,218.8l-7.9,2.6l7.9-16.4l2.7,8.3
	C102.6,215.5,101.3,218,99,218.8 M85,176.3l-7.9,2.6l16.1,8.4l-2.7-8.3C89.8,176.8,87.3,175.6,85,176.3z M12.9,200.1l7.9-2.6
	l-7.9,16.4l-2.7-8.3C9.3,203.4,10.6,200.9,12.9,200.1z M26.9,242.6l7.9-2.6l-16.1-8.4l2.7,8.3C22.1,242.1,24.6,243.3,26.9,242.6z"/>
<path fill-rule="evenodd" clip-rule="evenodd" fill="#EF7D00" d="M73.9,209.5c3.1-1,6.4,0.7,7.4,3.7c1,3.1-0.7,6.4-3.7,7.4
	c-3.1,1-6.4-0.7-7.4-3.7C69.2,213.8,70.8,210.5,73.9,209.5"/>
<rect x="28.3" y="204.1" transform="matrix(0.88 -0.475 0.475 0.88 -94.2734 42.5902)" fill-rule="evenodd" clip-rule="evenodd" fill="#AFCA04" width="17.7" height="7.5"/>
<polygon fill-rule="evenodd" clip-rule="evenodd" fill="#E62C29" points="53.8,213.3 36.7,208.9 41.8,222.9 "/>
<polygon fill-rule="evenodd" clip-rule="evenodd" fill="#E3000F" points="352.6,69 380.2,20.6 400.7,28.9 388.3,83.3 "/>
<rect x="387.4" y="12.3" transform="matrix(0.3725 -0.928 0.928 0.3725 227.4391 376.7896)" fill-rule="evenodd" clip-rule="evenodd" fill="#EF7D00" width="9.8" height="15.8"/>
<polygon fill-rule="evenodd" clip-rule="evenodd" fill="#B30172" points="397.9,87.6 425.5,39.2 446,47.4 433.6,101.9 "/>
<rect x="432.8" y="30.9" transform="matrix(0.3725 -0.928 0.928 0.3725 238.6463 430.4961)" fill-rule="evenodd" clip-rule="evenodd" fill="#2F2483" width="9.8" height="15.8"/>
<polygon fill-rule="evenodd" clip-rule="evenodd" fill="#008BD2" points="398.2,39.7 420.2,48.5 411,64.6 394.1,57.9 "/>
</svg>
