<?xml version="1.0" encoding="utf-8"?>
<!-- Generator: Adobe Illustrator 21.0.0, SVG Export Plug-In . SVG Version: 6.00 Build 0)  -->
<svg version="1.1" baseProfile="basic" id="Слой_1"
	 xmlns="http://www.w3.org/2000/svg" xmlns:xlink="http://www.w3.org/1999/xlink" x="0px" y="0px" viewBox="0 0 1280 716.3"
	 xml:space="preserve">
<rect fill-rule="evenodd" clip-rule="evenodd" fill="#D7DADB" width="1280" height="716"/>
<g>
	<path fill-rule="evenodd" clip-rule="evenodd" fill="#2E3192" d="M271.6,356.5l38.6,62.9c20-6.8,28.3,6.6,33.1,21l-19.3,2.9
		c2.7,5.2,2.9,3.9,6,8.9c8.7,14.3,59.4,97.4,61,103.3c-12.2,14.7-25.7,24-37.7,37.2l11.4,22.2c-3.2,4.9-15.7,17.2-21.5,22.2
		c-11.4,9.8-32.3,23.5-46.6,29.8c-5.6,2.4-11.7,5.3-18,7.5c-6.3,2.2-12.4,4.7-18.4,6.1c28.4,10.4,96.4,10.1,107.3,11.2
		c1.3,0.1-37.3,7.7-37.3,7.7c-3.8,2.9-17.4,0-27.5,0c-8.3,0-19.1-6-26.9-6.9c-17.2-2-30.9-5.8-46.7-9.5c1.5-1,0.5-0.6,3.5-1.8
		l12.2-3.8c29.6-9.9,75.2-36.7,90.3-61.4c-3.6-7.3-10.4-15.9-12.5-22.4l37.7-35.8c-2.7-8.4-12.1-22.3-16.8-30.1
		c-6.1-10.2-11.1-18.6-17.3-28.8c-21.6-36.3-43.6-72.2-65.1-108.4c-5.5-9.2-11.2-19.9-17.5-28.2l-1.2-2.8
		c-1.1-5.3,8.9-14.3,14.1-22.1c5.3-7.9,9.8-14.5,14.9-23.3c8.4-14.5,20.6-34.8,25.1-52.2l-0.2-0.2l2.6-6.9l9.9-19.5l5.4-2.7
		c9.3-3,25.7-12.3,27.4-16.5c-0.4,7.9-11.6,35.8-15.1,44.9C311.1,300.1,294.7,321.3,271.6,356.5"/>
	<path fill-rule="evenodd" clip-rule="evenodd" fill="#2E3192" d="M364.9,716.3h-25.2c24.8-30.8,15.9-24.3,46-27.2L364.9,716.3z"/>
	<path fill-rule="evenodd" clip-rule="evenodd" fill="#FFFFFF" d="M217.5,366.2c4.2-3.3,19.9-2.7,21.9-8.2c2.4,0.6,1.5-1,3,1.5
		l1.2,2.8c6.3,8.3,12,19,17.5,28.2c8,13.4,16.7,26,24.2,39.5c13.9,22.5,27,45.9,40.9,68.9c6.2,10.2,11.2,18.6,17.3,28.8
		c4.7,7.8,14.1,21.7,16.8,30.1l-37.7,35.8c2.1,6.5,8.9,15.2,12.5,22.4c-15.1,24.7-60.7,51.5-90.3,61.4l-12.2,3.8
		c-3,1.2-2,0.9-3.5,1.8c15.8,3.6,29.5,7.4,46.7,9.5c17.2,2,37.4,2.6,52.7,2l32.9-2.7c-5,2.3-8.7,8.2-21.8,24.5H93.2L46.8,697
		c-8.1-4.1-14-7.4-20.8-12.6c-10.5-8-16.1-15.1-25.6-23.8v-55.7c5.7-3.9,14.3-12.8,25.4-13.9c11.8,7.7,2.7,2.1,16.8,16.3
		c16.2,16.3,11.5,9.1,25.7,36l3.3,12.6c5.5-1.4,2.9,0,7.2-4.5c2.4-2.5,2.6-3.1,5.4-5.7c4.3-4,6.5-8.2,11.7-10
		c-2.2-6,0.2-4.3-2.8-10.5c-18.7-38.6-34.3-85.5-6-123c3.2-4.3,8.6-9.1,12.3-13.3c12.2-13.5,64.6-52.1,86.3-71.2
		c6.1-5.4,12.6-26.3,15.6-31.9l-6.2,2.4l1.1-0.2c5.8-4.6,7.6-8,15.6-13.3l0.3-2.8l2.7-0.9c0.1-0.2,0.3,0.3,0.5,0.4
		c-2.4,2.2-4.8,4.7-7.2,7.1l-4.1,3.9C194.2,390.3,215.4,370.5,217.5,366.2"/>
	<path fill-rule="evenodd" clip-rule="evenodd" fill="#2E3192" d="M296.6,261.9l-0.2-0.2L296.6,261.9z M310.6,228.2l-1.7,7
		l-9.9,19.5l-6.2,7.5c-8.7,10.4-11.7,11.9-22.5,20.3c-45.7,35.8-162.4,66-235.1,108.7c-12.5,7.3-23.2,15-34.8,22.1v-80.2
		c73.3-23.6,200.6-66.6,267.5-94.1c21.3-8.8,34.1-17.6,44.5-22.1C312,220.8,311.2,223.7,310.6,228.2z"/>
	<path fill-rule="evenodd" clip-rule="evenodd" fill="#2E3192" d="M243.6,489.9l7.1,2.6c27.4,10.7,29.6,36,31.8,39
		c4-4.6,6.6-4.6,10.5-8.9c1.8,1.8,2.6,2.3,4.3,3.9c-13.5,13.5-24.7,19.3-46,23.5c-18,3.6-46.6,4.3-65,2.1c10.7-12,23.8-20.7,37-41.2
		c4.9-7.5,10.1-15.4,14.6-25.4c6-13.3,1.5-13.1,8.3-9.8c4.6,2.2,4.1-3.2,1,6C246.5,484,244.6,486.9,243.6,489.9 M244.6,439.6
		c-20.8,14.6-40.3,23.1-55.4,46.7c-23.1,36.1-14.3,57.2-14.6,84.3l-37-2.5c-2.4-50.6,15-95.9,54.6-121.7c13.9-9,22.7-11.7,38.5-19.8
		C234.5,428.8,241.7,436.4,244.6,439.6z M271.9,535.8c-16.4-9-19.8-7.9-28.5-23.3c-1.4-2.4-3.5-8.2-5.6-10.8
		c-5.9,8.2-10.4,16.4-16.3,23.2c-3.6,4.1-4.7,6.3-9.2,9.9c-3.6,2.9-8.4,10.3-9.2,12C224,546.2,255.1,546.1,271.9,535.8z"/>
	<path fill-rule="evenodd" clip-rule="evenodd" fill="#2A2375" d="M92,649.7c3-5.9-3.2-15-12-33.5c-5.8-12.2-12.9-27-16.1-39.6
		c-8.6-33.5-7.6-58.9,13.4-85.8l16.9-15c0.3-0.2,0.6-0.5,0.9-0.7l30.3-22.4c4.9-3.9,10.5-6.2,16.6-10.4l63.1-47.7l6.3-1.8
		c-4.5,6.3-19.8,20-25.5,25c-21.7,19.2-74.1,57.7-86.3,71.2c-3.7,4.1-9.1,9-12.3,13.3c-28.3,37.5-12.7,84.4,6,123
		c2.7,5.5,6.4,11.4,8.8,16.8L92,649.7z M23.7,594.3c19.2,1.9,25.2,10.6,35.7,23.1c6,7.2,18.4,30.2,22.7,38.8c1-0.4,1.9-0.7,2.8-1.1
		l-10.1,7.8C59.5,629.9,49.5,604,23.7,594.3z"/>
	<path fill-rule="evenodd" clip-rule="evenodd" fill="#3EB54A" d="M93.2,716.3H0.4v-55.7C37.8,695,47.9,697.5,93.2,716.3
		 M296.4,261.7l0.2,0.2c-4.5,17.4-16.6,37.8-25.1,52.2c-5.1,8.8-9.6,15.5-14.9,23.3c-32.4,48.1-69.1,70.3-114.7,104.8
		c-6.1,4.2-11.7,6.5-16.6,10.4L95,475c-0.3,0.2-0.6,0.5-0.9,0.7l-16.9,15c-21,26.9-22,52.3-13.4,85.8c7.7,29.9,25.5,46,33.5,68.9
		l-22.6,17.4c-11.5-24.4-25.1-58.5-51.1-68.6c-11.1,1.1-17.5,6.7-23.3,10.6V413.4c11.6-7.1,22.3-14.8,34.8-22.1
		c72.7-42.7,189.4-72.8,235.1-108.7c10.8-8.4,13.8-9.9,22.5-20.3l6.2-7.5L296.4,261.7z"/>
</g>
<g>
	<path fill-rule="evenodd" clip-rule="evenodd" fill="#F58220" d="M957.8,340.8L957.8,340.8c1.6-1.1,3.8-0.6,4.9,1l8.4,13
		c1.1,1.6,0.6,3.8-1,4.9h0c-1.6,1.1-3.8,0.6-4.9-1l-8.4-13C955.7,344,956.2,341.8,957.8,340.8 M934.8,383L934.8,383
		c0-1.9,1.7-3.5,3.6-3.5l15.5,0.3c1.9,0,3.5,1.7,3.5,3.6v0c0,1.9-1.7,3.5-3.6,3.5l-15.5-0.3C936.3,386.5,934.7,384.9,934.8,383z
		 M1001.9,407.5L1001.9,407.5c1.6-1.1,3.8-0.6,4.9,1l8.4,13c1.1,1.6,0.6,3.8-1,4.9c-1.6,1.1-3.8,0.6-4.9-1l-8.4-13
		C999.8,410.7,1000.3,408.5,1001.9,407.5z M985.7,332.3L985.7,332.3c1.9,0,3.5,1.6,3.5,3.5v15.5c0,1.9-1.6,3.5-3.5,3.5h0
		c-1.9,0-3.5-1.6-3.5-3.5v-15.5C982.1,333.9,983.7,332.3,985.7,332.3z M986.3,412.3L986.3,412.3c1.9,0,3.5,1.6,3.5,3.5v15.5
		c0,1.9-1.6,3.5-3.5,3.5h0c-1.9,0-3.5-1.6-3.5-3.5v-15.5C982.8,413.9,984.4,412.3,986.3,412.3z M956.6,425.6L956.6,425.6
		c-1.6-1.1-2-3.3-0.9-4.9l8.8-12.7c1.1-1.6,3.3-2,4.9-0.9h0c1.6,1.1,2,3.3,0.9,4.9l-8.8,12.7C960.4,426.3,958.1,426.7,956.6,425.6z
		 M1001.7,359.6L1001.7,359.6c-1.6-1.1-2-3.3-0.9-4.9l8.8-12.7c1.1-1.6,3.3-2,4.9-0.9l0,0c1.6,1.1,2,3.3,0.9,4.9l-8.8,12.7
		C1005.5,360.3,1003.3,360.7,1001.7,359.6z M940.3,406.8L940.3,406.8c-0.9-1.7-0.2-3.9,1.6-4.7l13.8-6.9c1.7-0.9,3.9-0.2,4.7,1.6h0
		c0.9,1.7,0.2,3.9-1.6,4.7l-13.8,6.9C943.3,409.3,941.2,408.6,940.3,406.8z M1011.5,370.4L1011.5,370.4c-0.9-1.7-0.2-3.9,1.6-4.7
		l13.8-6.9c1.7-0.9,3.9-0.2,4.7,1.6l0,0c0.9,1.7,0.2,3.9-1.6,4.7l-13.8,6.9C1014.5,372.9,1012.4,372.1,1011.5,370.4z M940.3,360.3
		L940.3,360.3c0.9-1.7,3-2.4,4.8-1.5l13.7,7.1c1.7,0.9,2.4,3,1.5,4.8v0c-0.9,1.7-3,2.4-4.8,1.5l-13.7-7.1
		C940.1,364.2,939.4,362.1,940.3,360.3z M1011.7,396.5L1011.7,396.5c0.9-1.7,3-2.4,4.8-1.5l13.7,7.1c1.7,0.9,2.4,3,1.5,4.8l0,0
		c-0.9,1.7-3,2.4-4.8,1.5l-13.7-7.1C1011.5,400.3,1010.8,398.2,1011.7,396.5z M1014.7,383.7L1014.7,383.7c0-1.9,1.7-3.5,3.6-3.5
		l15.5,0.3c1.9,0,3.5,1.7,3.5,3.6v0c0,1.9-1.7,3.5-3.6,3.5l-15.5-0.3C1016.2,387.3,1014.7,385.7,1014.7,383.7z"/>
	<path fill-rule="evenodd" clip-rule="evenodd" fill="#ED1C24" d="M985.2,361.2c12.7,0,23,10.3,23,23c0,12.7-10.3,23-23,23
		c-12.7,0-23-10.3-23-23C962.3,371.4,972.6,361.2,985.2,361.2"/>
</g>
<g>
	
		<rect x="1137.5" y="143.7" transform="matrix(0.8535 -0.521 0.521 0.8535 92.5071 638.0492)" fill-rule="evenodd" clip-rule="evenodd" fill="#00AEEF" width="87.3" height="21.6"/>
	
		<rect x="1168.3" y="194.8" transform="matrix(0.8535 -0.521 0.521 0.8535 70.3887 661.5957)" fill-rule="evenodd" clip-rule="evenodd" fill="#2E3192" width="87.3" height="21.6"/>
	
		<rect x="1158.6" y="177.6" transform="matrix(0.8535 -0.521 0.521 0.8535 68.8449 638.1119)" fill-rule="evenodd" clip-rule="evenodd" fill="#3EB54A" width="21.6" height="38.1"/>
	
		<rect x="1213.2" y="144.3" transform="matrix(0.8535 -0.521 0.521 0.8535 94.1772 661.649)" fill-rule="evenodd" clip-rule="evenodd" fill="#AF127B" width="21.6" height="38.1"/>
	<polygon fill-rule="evenodd" clip-rule="evenodd" fill="#F58220" points="1138.3,168 1153.2,108.6 1211.1,123.5 	"/>
	
		<rect x="1131.5" y="118.8" transform="matrix(0.8535 -0.521 0.521 0.8535 96.1107 614.6931)" fill-rule="evenodd" clip-rule="evenodd" fill="#ED1C24" width="20" height="35.1"/>
	<polygon fill-rule="evenodd" clip-rule="evenodd" fill="#009D45" points="1148.2,128.3 1159.2,146.2 1142.1,156.6 1141.4,155.5 	
		"/>
</g>
<g>
	
		<rect x="1042.8" y="525.2" transform="matrix(0.9576 -0.2881 0.2881 0.9576 -110.0101 333.7247)" fill-rule="evenodd" clip-rule="evenodd" fill="#A6CE39" width="72.2" height="30.9"/>
	
		<rect x="1052.7" y="554.7" transform="matrix(0.9576 -0.2881 0.2881 0.9576 -119.0967 337.9829)" fill-rule="evenodd" clip-rule="evenodd" fill="#AF127B" width="72.2" height="38"/>
	
		<rect x="1062.8" y="491.8" transform="matrix(0.9576 -0.2881 0.2881 0.9576 -100.6976 331.8188)" fill-rule="evenodd" clip-rule="evenodd" fill="#ED1C24" width="28.6" height="32.5"/>
	
		<rect x="1093.5" y="505.8" transform="matrix(0.9576 -0.2881 0.2881 0.9576 -100.7715 338.7116)" fill-rule="evenodd" clip-rule="evenodd" fill="#009D45" width="14" height="12"/>
	<path fill-rule="evenodd" clip-rule="evenodd" fill="#00AEEF" d="M1056.6,540.5c3.5-1,7.1,0.9,8.2,4.4c1,3.5-0.9,7.1-4.4,8.2
		c-3.5,1-7.1-0.9-8.2-4.4C1051.2,545.2,1053.1,541.6,1056.6,540.5"/>
	<path fill-rule="evenodd" clip-rule="evenodd" fill="#00AEEF" d="M1077,534.4c3.5-1,7.1,0.9,8.2,4.4c1,3.5-0.9,7.1-4.4,8.2
		c-3.5,1-7.1-0.9-8.2-4.4C1071.6,539.1,1073.6,535.4,1077,534.4"/>
	<path fill-rule="evenodd" clip-rule="evenodd" fill="#00AEEF" d="M1097.5,528.2c3.5-1,7.1,0.9,8.2,4.4c1,3.5-0.9,7.1-4.4,8.2
		c-3.5,1-7.1-0.9-8.2-4.4C1092,532.9,1094,529.3,1097.5,528.2"/>
	<path fill-rule="evenodd" clip-rule="evenodd" fill="#2E3192" d="M1113.2,586.1c2.7,10-3,20.4-13,23.4c-10,3-20.5-2.5-23.7-12.3
		l8.5-2.6c1.8,5.1,7.4,8,12.6,6.4c5.3-1.6,8.3-7,7-12.3L1113.2,586.1z"/>
	<path fill-rule="evenodd" clip-rule="evenodd" fill="#00AEEF" d="M1089.2,572.8c10.1-3,20.8,2.7,23.9,12.8c0,0.2,0.1,0.3,0.1,0.5
		l-8.5,2.6c0-0.2-0.1-0.3-0.1-0.5c-1.6-5.4-7.4-8.5-12.8-6.9c-5.4,1.6-8.5,7.4-6.9,12.8c0,0.2,0.1,0.3,0.2,0.5l-8.5,2.6
		c-0.1-0.2-0.1-0.3-0.2-0.5C1073.3,586.5,1079.1,575.8,1089.2,572.8"/>
	<path fill-rule="evenodd" clip-rule="evenodd" fill="#00AEEF" d="M1113.5,530.9l15.2,50.5c28.4-8.6,45-37.9,37.9-66.5L1113.5,530.9
		z"/>
	<path fill-rule="evenodd" clip-rule="evenodd" fill="#2E3192" d="M1049,565.8l10.9,36.3c-20.4,6.1-42-4.9-49.1-24.8L1049,565.8z"/>
</g>
<g>
	
		<rect x="913.3" y="103" transform="matrix(0.458 -0.889 0.889 0.458 368.1971 905.2035)" fill-rule="evenodd" clip-rule="evenodd" fill="#ED1C24" width="26.2" height="95.4"/>
	
		<rect x="901.3" y="126.3" transform="matrix(0.458 -0.889 0.889 0.458 340.9626 907.1683)" fill-rule="evenodd" clip-rule="evenodd" fill="#F58220" width="26.2" height="95.4"/>
	<path fill-rule="evenodd" clip-rule="evenodd" fill="#3EB0DC" d="M930.6,143c4.5,2.3,6.3,7.7,4.1,11.9c-2.2,4.3-7.6,5.9-12.1,3.6
		c-4.5-2.3-6.3-7.7-4.1-12C920.7,142.3,926.1,140.7,930.6,143 M953.9,155c4.5,2.3,6.3,7.7,4.1,11.9c-2.2,4.3-7.6,5.9-12.1,3.6
		c-4.5-2.3-6.3-7.7-4.1-12C944,154.3,949.5,152.7,953.9,155z M907.3,131c4.5,2.3,6.3,7.7,4.1,11.9c-2.2,4.3-7.6,5.9-12.1,3.6
		c-4.5-2.3-6.3-7.7-4.1-11.9C897.4,130.3,902.8,128.7,907.3,131z"/>
	<path fill-rule="evenodd" clip-rule="evenodd" fill="#009D45" d="M894.6,162.9c7.2,3.7,10.1,12.2,6.6,19.1
		c-3.5,6.8-12.2,9.4-19.4,5.7c-7.2-3.7-10.1-12.2-6.6-19.1C878.8,161.7,887.5,159.2,894.6,162.9"/>
	<path fill-rule="evenodd" clip-rule="evenodd" fill="#2E3192" d="M936.7,184.6c7.2,3.7,10.1,12.2,6.6,19.1
		c-3.5,6.8-12.2,9.4-19.4,5.7c-7.2-3.7-10.1-12.2-6.6-19.1C920.9,183.4,929.6,180.9,936.7,184.6"/>
	
		<rect x="959.1" y="186.3" transform="matrix(0.458 -0.889 0.889 0.458 351.9799 963.0382)" fill-rule="evenodd" clip-rule="evenodd" fill="#CE3320" width="13.3" height="13.2"/>
	
		<rect x="1048.3" y="186.3" transform="matrix(0.458 -0.889 0.889 0.458 401.0837 1044.7712)" fill-rule="evenodd" clip-rule="evenodd" fill="#ED1C24" width="18.1" height="14.3"/>
	
		<rect x="1010" y="152.5" transform="matrix(0.458 -0.889 0.889 0.458 376.5606 1017.9761)" fill-rule="evenodd" clip-rule="evenodd" fill="#3EB0DC" width="26.2" height="95.4"/>
	
		<rect x="1029.7" y="211.7" transform="matrix(0.458 -0.889 0.889 0.458 352.0034 1057.002)" fill-rule="evenodd" clip-rule="evenodd" fill="#F58220" width="26.2" height="56.2"/>
	
		<rect x="980.1" y="186.7" transform="matrix(0.458 -0.889 0.889 0.458 347.8419 999.1134)" fill-rule="evenodd" clip-rule="evenodd" fill="#A6CE39" width="26.2" height="55.3"/>
	<path fill-rule="evenodd" clip-rule="evenodd" fill="#2E3192" d="M997.4,216.2c7.2,3.7,10.1,12.2,6.6,19.1
		c-3.5,6.8-12.2,9.4-19.4,5.7c-7.2-3.7-10.1-12.2-6.6-19.1C981.5,215.1,990.2,212.5,997.4,216.2"/>
	<path fill-rule="evenodd" clip-rule="evenodd" fill="#2E3192" d="M1039.5,237.9c7.2,3.7,10.1,12.2,6.6,19.1s-12.2,9.4-19.4,5.7
		c-7.2-3.7-10.1-12.2-6.6-19.1C1023.6,236.7,1032.3,234.2,1039.5,237.9"/>
</g>
<g>
	<polygon fill-rule="evenodd" clip-rule="evenodd" fill="#ED1C24" points="1148.9,428.7 1134.5,365.8 1158.5,356.7 1190.5,413 	"/>
	
		<rect x="1135.4" y="350.2" transform="matrix(0.9357 -0.3528 0.3528 0.9357 -51.9723 426.6501)" fill-rule="evenodd" clip-rule="evenodd" fill="#F58220" width="18.3" height="11.4"/>
	<polygon fill-rule="evenodd" clip-rule="evenodd" fill="#AF127B" points="1202.1,409 1187.7,346.2 1211.7,337.1 1243.7,393.3 	"/>
	
		<rect x="1188.6" y="330.6" transform="matrix(0.9357 -0.3528 0.3528 0.9357 -41.6246 444.1756)" fill-rule="evenodd" clip-rule="evenodd" fill="#2E3192" width="18.3" height="11.4"/>
	<polygon fill-rule="evenodd" clip-rule="evenodd" fill="#0095DA" points="1164.9,367.9 1190.5,358.3 1195.3,379.2 1175.5,386.7 	
		"/>
</g>
</svg>
