<?xml version="1.0" encoding="utf-8"?>
<!-- Generator: Adobe Illustrator 21.0.0, SVG Export Plug-In . SVG Version: 6.00 Build 0)  -->
<svg version="1.1" baseProfile="basic" id="Слой_1"
	 xmlns="http://www.w3.org/2000/svg" xmlns:xlink="http://www.w3.org/1999/xlink" x="0px" y="0px" viewBox="0 0 691 980"
	 xml:space="preserve">
<rect x="3" fill-rule="evenodd" clip-rule="evenodd" fill="#D7DADB" width="688" height="980"/>
<g>
	<path fill-rule="evenodd" clip-rule="evenodd" fill="#2E3192" d="M242.8,657.8l34.5,56.4c17.9-6.1,25.3,6,29.6,18.8l-17.3,2.6
		c2.5,4.7,2.6,3.5,5.3,8c7.7,12.8,53.2,87.2,54.7,92.5c-11,13.2-23,21.5-33.8,33.3l10.2,19.9c-2.9,4.4-14.1,15.4-19.3,19.9
		c-10.2,8.8-28.9,21.1-41.7,26.7c-5,2.2-10.5,4.7-16.1,6.7c-5.7,2-11.1,4.2-16.5,5.5c25.4,9.4,86.3,9.1,96.1,10.1
		c1.2,0.1-33.4,6.9-33.4,6.9c-3.4,2.6-15.6,0-24.7,0c-7.5,0-17.1-5.4-24.1-6.2c-15.4-1.8-27.7-5.2-41.8-8.5c1.3-0.9,0.4-0.5,3.1-1.7
		l10.9-3.4c26.5-8.8,67.3-32.8,80.8-55c-3.2-6.5-9.3-14.2-11.1-20.1l33.8-32.1c-2.4-7.5-10.8-19.9-15.1-27
		c-5.5-9.1-10-16.7-15.5-25.8c-19.3-32.5-39-64.7-58.3-97c-4.9-8.2-10-17.8-15.6-25.3l-1-2.5c-1-4.7,7.9-12.8,12.6-19.8
		c4.7-7,8.8-13,13.4-20.9c7.5-12.9,18.4-31.2,22.4-46.8l-0.1-0.2l2.3-6.2l8.9-17.5l4.8-2.4c8.3-2.7,23-11,24.5-14.7
		c-0.4,7.1-10.4,32.1-13.6,40.2C278.2,607.3,263.5,626.3,242.8,657.8L242.8,657.8z"/>
	<path fill-rule="evenodd" clip-rule="evenodd" fill="#2E3192" d="M326.3,980h-22.6c22.2-27.6,14.2-21.8,41.2-24.3L326.3,980z"/>
	<path fill-rule="evenodd" clip-rule="evenodd" fill="#FFFFFF" d="M194.4,666.5c3.8-3,17.8-2.4,19.6-7.4c2.1,0.5,1.4-0.9,2.7,1.4
		l1,2.5c5.6,7.4,10.7,17,15.6,25.3c7.2,12,14.9,23.3,21.6,35.3c12.5,20.2,24.2,41.1,36.7,61.7c5.6,9.1,10,16.7,15.5,25.8
		c4.2,7,12.6,19.4,15.1,27l-33.8,32.1c1.8,5.9,7.9,13.6,11.1,20.1c-13.5,22.1-54.4,46.2-80.8,55l-10.9,3.4c-2.7,1.1-1.8,0.8-3.1,1.7
		c14.1,3.3,26.4,6.7,41.8,8.5c15.4,1.8,33.5,2.4,47.2,1.8l29.4-2.4c-4.5,2.1-7.8,7.4-19.5,21.9H83.1l-41.6-17.3
		c-7.2-3.6-12.5-6.7-18.6-11.3c-9.4-7.1-14.4-13.5-22.9-21.3v-49.9c5.1-3.5,12.8-11.5,22.8-12.4c10.6,6.9,2.4,1.8,15,14.6
		c14.5,14.6,10.3,8.2,23,32.3l2.9,11.3c4.9-1.3,2.6,0,6.5-4.1c2.1-2.2,2.3-2.7,4.8-5.1c3.8-3.6,5.8-7.3,10.5-8.9
		c-2-5.4,0.2-3.8-2.5-9.4c-16.8-34.5-30.7-76.6-5.4-110.1c2.9-3.8,7.7-8.2,11-11.9c10.9-12.1,57.9-46.6,77.3-63.8
		c5.5-4.8,11.3-23.6,14-28.5l-5.6,2.2l1-0.2c5.2-4.1,6.8-7.1,14-11.9l0.3-2.5l2.4-0.8c0.1-0.2,0.3,0.2,0.4,0.3
		c-2.1,2-4.3,4.2-6.4,6.4l-3.7,3.5C173.5,688.1,192.5,670.4,194.4,666.5L194.4,666.5z"/>
	<path fill-rule="evenodd" clip-rule="evenodd" fill="#2E3192" d="M239.5,552.7c-59,24.3-170.4,62-236.5,83.3c-1,0.3-2,0.6-3,1v71.8
		c1-0.6,2-1.2,3-1.9c9.3-5.8,18-12,28.2-17.9c65.1-38.2,169.6-65.2,210.5-97.3c9.6-7.6,12.4-8.9,20.1-18.2l5.5-6.7l8.9-17.5l1.5-6.3
		c0.5-4.1,1.3-6.6,1.6-10.1C270.1,536.9,258.6,544.8,239.5,552.7z"/>
	<path fill-rule="evenodd" clip-rule="evenodd" fill="#2E3192" d="M262,806.6c-3.6,3.8-5.8,3.8-9.4,7.9c-2-2.7-4-25.4-28.5-34.9
		l-6.3-2.3c0.9-2.7,2.6-5.3,3.3-7.2c2.8-8.3,3.2-3.4-0.9-5.4c-6.1-3-2.1-3.1-7.5,8.8c-4,8.9-8.7,16-13.1,22.7
		c-11.8,18.4-23.6,26.2-33.2,36.9c16.4,1.9,42,1.3,58.2-1.9c19.1-3.8,29.1-9,41.2-21.1C264.3,808.6,263.6,808.2,262,806.6z
		 M181.3,828.2c0.7-1.5,5.1-8.2,8.3-10.8c4.1-3.3,5.1-5.3,8.2-8.9c5.3-6.1,9.3-13.4,14.6-20.7c1.9,2.3,3.8,7.5,5,9.7
		c7.9,13.8,10.9,12.8,25.6,20.9C228,827.6,200.2,827.7,181.3,828.2z M206.1,720.6c-14.1,7.2-22,9.6-34.4,17.7
		c-35.5,23.1-51,63.6-48.9,108.9l33.2,2.2c0.2-24.3-7.6-43.1,13.1-75.4c13.5-21.1,31-28.8,49.6-41.8
		C216,729.3,209.5,722.5,206.1,720.6z"/>
	<path fill-rule="evenodd" clip-rule="evenodd" fill="#2A2375" d="M183.1,691.9l-3.4,2.5l-6,4.6l-47.1,35.6
		c-5.4,3.8-10.5,5.8-14.8,9.3L84.7,764c-0.2,0.2-0.5,0.5-0.8,0.7L68.8,778c-18.8,24.1-19.7,46.8-12,76.8c0.2,0.7,0.4,1.4,0.6,2.1
		c1,3.5,2.3,7.1,3.7,10.7c3,7.7,6.8,15.6,10.1,22.6c4.2,8.9,7.8,15.3,9.7,20.2c1.7,4.2,2.2,7.3,1,9.8l4.9-3.7l4-3.1
		c-2-4.7-5.2-9.8-7.6-14.5c-0.1-0.2-0.2-0.3-0.2-0.5c-16.8-34.5-30.7-76.6-5.4-110.1c2.9-3.8,7.7-8.2,11-11.9
		c10.9-12.1,57.9-46.6,77.3-63.8c0.1-0.1,0.2-0.1,0.3-0.2c5.3-4.7,18.6-16.6,22.6-22.2L183.1,691.9z M73.1,926.1
		c-0.6-1.3-1.5-2.9-2.4-4.8c-4.9-9.4-13.4-24.7-17.9-30c-7.7-9.2-12.8-16.1-23.9-19.2c-2.4-0.7-5-1.2-8.1-1.5
		c0.4,0.1,0.7,0.3,1.1,0.4c4.4,1.8,8.3,4.1,11.8,6.9l0,0c3.1,2.5,6,5.4,8.6,8.7l0,0l0,0l0,0c8.1,10.1,14.2,23.6,21.4,39.1l0,0v0
		c0.9,2,1.9,4.1,2.9,6.2l9-6.9C74.9,925.5,74,925.8,73.1,926.1z"/>
	<path fill-rule="evenodd" clip-rule="evenodd" fill="#3EB54A" d="M79.3,978.5c-7.8-3.2-14.3-5.9-20.1-8.3c-0.1,0-0.2-0.1-0.2-0.1
		c-21.2-9.1-32.5-15.8-56-37.1c-1-0.9-2-1.8-3-2.8V980h83.1C81.8,979.5,80.5,979,79.3,978.5z M267.3,566.7l-5.5,6.7
		c-7.8,9.3-10.5,10.7-20.1,18.2c-40.9,32.1-145.4,59.1-210.5,97.3C21,694.9,12.3,701.1,3,706.9c-1,0.6-2,1.2-3,1.9v171.5
		c0.2-0.1,0.4-0.3,0.6-0.4c0,0,0.1-0.1,0.1-0.1c0.8-0.5,1.5-1.1,2.3-1.6c4.5-3.2,9.8-6.6,17.8-7.4c0.4,0.1,0.7,0.3,1.1,0.4
		c22.5,9.6,34.5,39.5,44.6,61l0,0l9-6.9l6.3-4.9l4.9-3.7c-1-2.7-2-5.3-3.3-7.9c-6.4-13.4-15.8-25-22.4-41c-1.4-3.4-2.7-6.9-3.7-10.7
		c-0.2-0.7-0.4-1.4-0.6-2.1c-7.7-30-6.8-52.7,12-76.8l15.1-13.4c0.2-0.2,0.6-0.5,0.8-0.7l27.1-20.1c4.4-3.5,9.4-5.5,14.8-9.3
		c16.9-12.8,32.4-23.7,46.9-35.1l0,0c2.1-1.6,4.2-3.3,6.2-5c12.7-10.4,24.6-21.6,35.8-35.2c0.6-0.7,1.2-1.5,1.8-2.2v0c0,0,0,0,0,0
		l0,0c3.9-4.9,7.8-10,11.5-15.6c0.2-0.2,0.3-0.4,0.4-0.6c4.7-7,8.8-13,13.4-20.9c7.6-13,18.4-31.1,22.4-46.8l-0.1-0.1L267.3,566.7z"
		/>
</g>
<g>
	<path fill-rule="evenodd" clip-rule="evenodd" fill="#F58220" d="M56.9,407.9l-14.8-12c-1.9-1.5-4.6-1.2-6.1,0.6
		c-1.5,1.8-1.2,4.6,0.6,6.1l14.8,12c1.8,1.5,4.6,1.2,6.1-0.6C59.1,412.1,58.8,409.4,56.9,407.9z M31,429l-5.9-18.1
		c-0.7-2.3-3.2-3.5-5.5-2.8c-2.3,0.7-3.5,3.2-2.8,5.5l5.9,18.1c0.6,1.8,2.3,3,4.1,3c0.5,0,0.9-0.1,1.3-0.2
		C30.5,433.7,31.7,431.2,31,429z M25.7,314.3c-2.3-0.7-4.7,0.6-5.4,2.9l-5.5,18.2c-0.7,2.3,0.6,4.7,2.9,5.4c2.3,0.7,4.7-0.6,5.4-2.9
		l5.5-18.2c0.1-0.4,0.2-0.8,0.2-1.2C28.8,316.6,27.5,314.8,25.7,314.3z M52.9,330.2c-1.7-1.7-4.4-1.7-6.1-0.1l-13.5,13.3
		c-1.7,1.7-1.7,4.4,0,6.1s4.4,1.7,6.1,0l13.5-13.3c0.9-0.8,1.3-2,1.3-3.1C54.2,332.2,53.8,331.1,52.9,330.2z M67,379.5l-18.7-3.1
		c-2.3-0.4-4.6,1.2-5,3.6c-0.4,2.4,1.2,4.6,3.6,5l18.7,3.1c0.2,0,0.5,0.1,0.7,0.1c2.1,0,3.9-1.5,4.3-3.6
		C71,382.2,69.3,379.9,67,379.5z M68.5,356c-0.7-2.3-3.1-3.6-5.4-2.9l-18.2,5.5c-2.3,0.7-3.6,3.1-2.9,5.4c0.7,2.3,3.1,3.6,5.4,2.9
		l18.2-5.5c1.9-0.6,3.1-2.3,3.1-4.2C68.7,356.8,68.6,356.4,68.5,356z"/>
	<path fill-rule="evenodd" clip-rule="evenodd" fill="#ED1C24" d="M16.4,402.5c-4.5,1.5-9.1,1.7-13.4,1v-55.6
		c13.6-2.3,27.2,5.6,31.5,19.1C39.3,381.8,31.2,397.6,16.4,402.5z"/>
</g>
<g>
	<polygon fill-rule="evenodd" clip-rule="evenodd" fill="#00AEEF" points="691,393.7 691,417 679.9,421.5 640.7,437.5 620.7,445.6 
		620.7,445.6 619.8,446 611.7,425.9 690.8,393.8 	"/>
	<polygon fill-rule="evenodd" clip-rule="evenodd" fill="#2E3192" points="691,458.1 691,481.4 642.1,501.4 633.9,481.3 635,480.9 
		655,472.7 	"/>
	
		<rect x="627.1" y="440.2" transform="matrix(0.9262 -0.377 0.377 0.9262 -126.0449 274.3477)" fill-rule="evenodd" clip-rule="evenodd" fill="#3EB54A" width="21.6" height="38.1"/>
	<polygon fill-rule="evenodd" clip-rule="evenodd" fill="#AF127B" points="691,417 691,448.9 679.9,421.5 	"/>
	<polygon fill-rule="evenodd" clip-rule="evenodd" fill="#F58220" points="611.7,425.9 636,369.8 690.7,393.8 	"/>
	
		<rect x="609.9" y="377.7" transform="matrix(0.9262 -0.377 0.377 0.9262 -103.2642 262.8556)" fill-rule="evenodd" clip-rule="evenodd" fill="#ED1C24" width="20" height="35.1"/>
	<polygon fill-rule="evenodd" clip-rule="evenodd" fill="#009D45" points="627.9,388.4 635.8,407.8 617.3,415.3 616.8,414.1 	"/>
</g>
<g>
	
		<rect x="477.5" y="728.8" transform="matrix(0.408 -0.913 0.913 0.408 -406.5501 902.8716)" fill-rule="evenodd" clip-rule="evenodd" fill="#A6CE39" width="30.9" height="72.2"/>
	
		<rect x="459.9" y="760.3" transform="matrix(0.408 -0.913 0.913 0.408 -443.6023 908.6576)" fill-rule="evenodd" clip-rule="evenodd" fill="#AF127B" width="38" height="72.2"/>
	
		<rect x="496.6" y="724.8" transform="matrix(0.408 -0.913 0.913 0.408 -371.1445 905.7598)" fill-rule="evenodd" clip-rule="evenodd" fill="#ED1C24" width="32.5" height="28.6"/>
	
		<rect x="522.2" y="750.1" transform="matrix(0.408 -0.913 0.913 0.408 -378.6052 930.402)" fill-rule="evenodd" clip-rule="evenodd" fill="#009D45" width="12" height="14"/>
	<path fill-rule="evenodd" clip-rule="evenodd" fill="#00AEEF" d="M476.2,750.2c3.3,1.5,4.8,5.4,3.3,8.7c-1.5,3.3-5.4,4.8-8.7,3.3
		c-3.3-1.5-4.8-5.4-3.3-8.7C469,750.2,472.9,748.8,476.2,750.2L476.2,750.2z"/>
	<path fill-rule="evenodd" clip-rule="evenodd" fill="#00AEEF" d="M495.6,759c3.3,1.5,4.8,5.4,3.3,8.7c-1.5,3.3-5.4,4.8-8.7,3.3
		c-3.3-1.5-4.8-5.4-3.3-8.7C488.5,759,492.3,757.5,495.6,759L495.6,759z"/>
	<path fill-rule="evenodd" clip-rule="evenodd" fill="#00AEEF" d="M515.1,767.7c3.3,1.5,4.8,5.4,3.3,8.7c-1.5,3.3-5.4,4.8-8.7,3.3
		c-3.3-1.5-4.8-5.4-3.3-8.7C507.9,767.7,511.8,766.2,515.1,767.7L515.1,767.7z"/>
	<path fill-rule="evenodd" clip-rule="evenodd" fill="#2E3192" d="M489.2,821.7c-4.5,9.3-15.6,13.4-25.1,9.2
		c-9.5-4.2-13.8-15.3-9.9-24.8l8.1,3.6c-2,5.1,0.4,10.8,5.4,13.1c5,2.2,10.9,0.1,13.3-4.7L489.2,821.7z"/>
	<path fill-rule="evenodd" clip-rule="evenodd" fill="#00AEEF" d="M479.7,795.9c9.7,4.3,14,15.6,9.7,25.3c-0.1,0.2-0.1,0.3-0.2,0.5
		l-8.1-3.6c0.1-0.2,0.2-0.3,0.2-0.5c2.3-5.2,0-11.2-5.2-13.6c-5.2-2.3-11.2,0-13.6,5.2c-0.1,0.2-0.1,0.3-0.2,0.5l-8.1-3.6
		c0.1-0.2,0.1-0.3,0.2-0.5C458.8,796,470.1,791.6,479.7,795.9L479.7,795.9z"/>
	<path fill-rule="evenodd" clip-rule="evenodd" fill="#00AEEF" d="M525.5,780.2L504,828.3c27.1,12.1,58.8,0.8,72.2-25.5L525.5,780.2
		z"/>
	<path fill-rule="evenodd" clip-rule="evenodd" fill="#2E3192" d="M453.8,764.4L438.4,799c-19.5-8.7-28.6-31.1-21-50.9L453.8,764.4z
		"/>
</g>
<g>
	<polygon fill-rule="evenodd" clip-rule="evenodd" fill="#ED1C24" points="554.1,940.1 467.6,980 463.2,980 452.6,956.9 
		542.7,915.3 554,939.8 	"/>
	<polygon fill-rule="evenodd" clip-rule="evenodd" fill="#F58220" points="565.6,964.9 557.7,968.5 532.8,980 467.6,980 
		554.1,940.1 559.8,952.4 	"/>
	<path fill-rule="evenodd" clip-rule="evenodd" fill="#3EB0DC" d="M512.2,944.4c-2.1-4.6-7.7-6.5-12.4-4.3c-4.8,2.2-7,7.7-4.9,12.2
		c2.1,4.6,7.7,6.5,12.5,4.3C512.2,954.4,514.3,948.9,512.2,944.4z M537,933c-2.1-4.6-7.7-6.5-12.5-4.3c-4.8,2.2-7,7.7-4.9,12.2
		c2.1,4.6,7.7,6.5,12.5,4.3C537,943,539.1,937.5,537,933z M487.4,955.8c-2.1-4.6-7.7-6.5-12.5-4.3c-4.8,2.2-6.9,7.7-4.8,12.2
		s7.7,6.5,12.5,4.3C487.3,965.8,489.5,960.4,487.4,955.8z"/>
	<path fill-rule="evenodd" clip-rule="evenodd" fill="#2E3192" d="M557.8,980h-28.3c-2.4-7,1.1-15,8.2-18.3
		c7.6-3.5,16.5-0.5,19.9,6.8C559.4,972.3,559.3,976.4,557.8,980z"/>
	
		<rect x="556.3" y="936.3" transform="matrix(0.9082 -0.4186 0.4186 0.9082 -343.152 322.3875)" fill-rule="evenodd" clip-rule="evenodd" fill="#CE3320" width="13.8" height="13.9"/>
	
		<rect x="614.9" y="859.1" transform="matrix(0.9082 -0.4186 0.4186 0.9082 -306.438 340.2966)" fill-rule="evenodd" clip-rule="evenodd" fill="#ED1C24" width="14.8" height="18.8"/>
	
		<rect x="556.3" y="887.3" transform="matrix(0.9082 -0.4186 0.4186 0.9082 -321.5071 336.3968)" fill-rule="evenodd" clip-rule="evenodd" fill="#3EB0DC" width="99.3" height="27.3"/>
	
		<rect x="621.8" y="896.5" transform="matrix(0.9082 -0.4186 0.4186 0.9082 -321.2185 356.1473)" fill-rule="evenodd" clip-rule="evenodd" fill="#F58220" width="58.5" height="27.3"/>
	
		<rect x="569.6" y="920.8" transform="matrix(0.9082 -0.4186 0.4186 0.9082 -336.2278 336.3223)" fill-rule="evenodd" clip-rule="evenodd" fill="#A6CE39" width="57.5" height="27.3"/>
	<path fill-rule="evenodd" clip-rule="evenodd" fill="#2E3192" d="M602.6,932.2c7.6-3.5,16.5-0.5,19.9,6.8c3.4,7.3-0.1,16-7.7,19.5
		c-7.6,3.5-16.5,0.5-19.9-6.8C591.5,944.5,595,935.8,602.6,932.2L602.6,932.2z"/>
	<path fill-rule="evenodd" clip-rule="evenodd" fill="#2E3192" d="M647.3,911.6c7.6-3.5,16.5-0.5,19.9,6.8c3.4,7.3-0.1,16-7.7,19.5
		c-7.6,3.5-16.5,0.5-19.9-6.8C636.3,923.9,639.7,915.1,647.3,911.6L647.3,911.6z"/>
</g>
</svg>
