<?xml version="1.0" standalone="no"?>
<!DOCTYPE svg PUBLIC "-//W3C//DTD SVG 20010904//EN"
 "http://www.w3.org/TR/2001/REC-SVG-20010904/DTD/svg10.dtd">
<svg version="1.0" xmlns="http://www.w3.org/2000/svg"
 width="700.000000pt" height="700.000000pt" viewBox="0 0 700.000000 700.000000"
 preserveAspectRatio="xMidYMid meet">
<metadata>
Created by potrace 1.11, written by Peter Selinger 2001-2013
</metadata>
<g transform="translate(0.000000,700.000000) scale(0.100000,-0.100000)"
fill="#000000" stroke="none">
<path d="M0 5353 l0 -1651 113 -105 c401 -372 778 -633 1242 -858 560 -272
1118 -424 1760 -480 167 -14 603 -14 770 0 1135 99 2137 540 2970 1308 l140
129 3 1654 c1 909 -1 1650 -4 1647 -4 -4 -11 -52 -16 -109 -129 -1528 -1254
-2801 -2755 -3118 -479 -101 -966 -101 -1445 0 -531 112 -1028 348 -1456 689
-128 102 -364 331 -471 456 -383 448 -650 988 -766 1552 -30 145 -65 392 -65
462 0 25 -5 53 -10 61 -6 10 -10 -567 -10 -1637z"/>
<path d="M1380 6992 c0 -5 7 -55 15 -113 99 -697 541 -1298 1180 -1609 299
-145 588 -211 925 -211 337 0 626 66 926 212 576 280 995 798 1145 1419 19 79
48 252 49 293 0 16 -41 17 -733 17 l-733 0 -19 -52 c-46 -129 -168 -276 -287
-346 -212 -125 -484 -125 -696 0 -119 70 -241 217 -287 346 l-19 52 -733 0
c-403 0 -733 -4 -733 -8z"/>
<path d="M0 970 l0 -970 3500 0 3500 0 0 970 c0 534 -3 970 -6 970 -3 0 -38
-21 -77 -47 -1324 -859 -2913 -1184 -4488 -917 -824 139 -1638 457 -2346 917
-39 26 -74 47 -77 47 -3 0 -6 -436 -6 -970z"/>
</g>
</svg>
