<?xml version="1.0" standalone="no"?>
<!DOCTYPE svg PUBLIC "-//W3C//DTD SVG 20010904//EN"
 "http://www.w3.org/TR/2001/REC-SVG-20010904/DTD/svg10.dtd">
<svg version="1.0" xmlns="http://www.w3.org/2000/svg"
 width="412.000000pt" height="412.000000pt" viewBox="0 0 412.000000 412.000000"
 preserveAspectRatio="xMidYMid meet">
<metadata>
Created by potrace 1.11, written by Peter Selinger 2001-2013
</metadata>
<g transform="translate(0.000000,412.000000) scale(0.100000,-0.100000)"
fill="#000000" stroke="none">
<path d="M1915 3440 c-501 -57 -975 -333 -1235 -719 -185 -276 -250 -662 -154
-921 32 -85 107 -204 153 -243 92 -77 202 -112 303 -96 134 22 213 94 213 195
0 45 -4 57 -29 83 -26 27 -36 31 -86 31 -46 0 -72 -8 -139 -41 -45 -22 -98
-43 -117 -46 -82 -13 -188 66 -246 186 -28 55 -33 77 -36 159 -7 142 25 258
111 407 190 330 522 594 898 713 203 65 282 76 529 76 195 0 239 -3 326 -22
139 -30 287 -83 419 -148 275 -136 523 -373 645 -614 169 -334 136 -716 -80
-930 -77 -76 -149 -121 -252 -157 -71 -25 -80 -26 -333 -27 l-260 -1 -3 463
-2 463 25 23 c14 13 25 26 25 30 0 3 -65 6 -145 6 -134 0 -177 -9 -125 -25 11
-3 22 -16 25 -28 3 -12 4 -362 3 -777 l-3 -755 -22 -10 c-13 -5 -23 -15 -23
-22 0 -10 36 -13 150 -13 127 0 150 2 150 15 0 8 -6 15 -14 15 -8 0 -22 10
-30 22 -13 19 -16 58 -16 224 l0 201 233 -1 c253 -1 303 5 419 54 233 99 383
299 444 591 25 117 25 363 1 479 -57 269 -172 477 -376 680 -249 249 -559 406
-921 466 -109 19 -323 25 -425 14z"/>
<path d="M1705 3060 c-131 -34 -223 -68 -328 -120 -280 -140 -498 -386 -381
-430 41 -16 72 5 197 135 163 170 299 263 520 356 114 48 127 56 127 75 0 19
-8 18 -135 -16z"/>
</g>
</svg>
